<mxfile host="Electron" modified="2024-07-08T17:24:51.322Z" agent="Mozilla/5.0 (Macintosh; Intel Mac OS X 10_15_7) AppleWebKit/537.36 (KHTML, like Gecko) draw.io/24.6.4 Chrome/124.0.6367.207 Electron/30.0.6 Safari/537.36" etag="yvp7pDnygXxFCjC4Sj14" version="24.6.4" type="device">
  <diagram name="Page-1" id="8RcB091pld8Xh7fh2s0W">
    <mxGraphModel dx="1584" dy="1184" grid="1" gridSize="10" guides="1" tooltips="1" connect="1" arrows="1" fold="1" page="1" pageScale="1" pageWidth="3300" pageHeight="4681" math="0" shadow="0">
      <root>
        <mxCell id="0" />
        <mxCell id="1" parent="0" />
        <mxCell id="GztQF_fcFN-zkm4wOgRc-7" value="" style="verticalLabelPosition=bottom;verticalAlign=top;html=1;shape=mxgraph.basic.cone2;dx=0.5;dy=0.9;fillColor=#e1d5e7;strokeColor=#9673a6;" vertex="1" parent="1">
          <mxGeometry x="650" y="120" width="480" height="530" as="geometry" />
        </mxCell>
        <mxCell id="GztQF_fcFN-zkm4wOgRc-8" value="&lt;h2&gt;Se souvenir&lt;/h2&gt;" style="verticalLabelPosition=bottom;verticalAlign=top;html=1;shape=mxgraph.basic.cone2;dx=0.5;dy=0.9;fillColor=#dae8fc;strokeColor=#6c8ebf;" vertex="1" parent="1">
          <mxGeometry x="690" y="120" width="400" height="440" as="geometry" />
        </mxCell>
        <mxCell id="GztQF_fcFN-zkm4wOgRc-9" value="&lt;h2&gt;Comprendre&lt;/h2&gt;" style="verticalLabelPosition=bottom;verticalAlign=top;html=1;shape=mxgraph.basic.cone2;dx=0.5;dy=0.9;fillColor=#d5e8d4;strokeColor=#82b366;" vertex="1" parent="1">
          <mxGeometry x="730" y="120" width="320" height="350" as="geometry" />
        </mxCell>
        <mxCell id="GztQF_fcFN-zkm4wOgRc-10" value="&lt;h2&gt;Appliquer&lt;/h2&gt;" style="verticalLabelPosition=bottom;verticalAlign=top;html=1;shape=mxgraph.basic.cone2;dx=0.5;dy=0.9;fillColor=#fff2cc;strokeColor=#d6b656;" vertex="1" parent="1">
          <mxGeometry x="765" y="120" width="250" height="270" as="geometry" />
        </mxCell>
        <mxCell id="GztQF_fcFN-zkm4wOgRc-11" value="&lt;h2&gt;Analyser&lt;/h2&gt;" style="verticalLabelPosition=bottom;verticalAlign=top;html=1;shape=mxgraph.basic.cone2;dx=0.5;dy=0.9;fillColor=#ffe6cc;strokeColor=#d79b00;" vertex="1" parent="1">
          <mxGeometry x="805" y="120" width="170" height="180" as="geometry" />
        </mxCell>
        <mxCell id="GztQF_fcFN-zkm4wOgRc-12" value="&lt;h2&gt;Évaluer&lt;/h2&gt;" style="verticalLabelPosition=bottom;verticalAlign=top;html=1;shape=mxgraph.basic.cone2;dx=0.5;dy=0.9;fillColor=#f8cecc;strokeColor=#b85450;" vertex="1" parent="1">
          <mxGeometry x="847.5" y="120" width="85" height="90" as="geometry" />
        </mxCell>
        <mxCell id="GztQF_fcFN-zkm4wOgRc-13" value="&lt;h2&gt;Créer&lt;/h2&gt;" style="text;html=1;align=center;verticalAlign=middle;whiteSpace=wrap;rounded=0;" vertex="1" parent="1">
          <mxGeometry x="860" y="160" width="60" height="30" as="geometry" />
        </mxCell>
        <mxCell id="GztQF_fcFN-zkm4wOgRc-14" value="" style="shape=flexArrow;endArrow=classic;html=1;rounded=0;fillColor=#f8cecc;strokeColor=#b85450;gradientColor=#b5d8f2;" edge="1" parent="1">
          <mxGeometry width="50" height="50" relative="1" as="geometry">
            <mxPoint x="620" y="610" as="sourcePoint" />
            <mxPoint x="620" y="120" as="targetPoint" />
          </mxGeometry>
        </mxCell>
        <mxCell id="GztQF_fcFN-zkm4wOgRc-15" value="&lt;font style=&quot;font-size: 16px;&quot;&gt;Difficulté croissante&lt;/font&gt;" style="text;html=1;align=center;verticalAlign=middle;whiteSpace=wrap;rounded=0;rotation=-90;" vertex="1" parent="1">
          <mxGeometry x="540" y="325" width="220" height="30" as="geometry" />
        </mxCell>
        <mxCell id="GztQF_fcFN-zkm4wOgRc-16" value="&lt;font style=&quot;font-size: 14px;&quot;&gt;Niveau suffisant pour réussir la plupart des cours en biologie (hélas !)&lt;/font&gt;" style="shape=callout;whiteSpace=wrap;html=1;perimeter=calloutPerimeter;position2=0;fillColor=#e1d5e7;strokeColor=#9673a6;" vertex="1" parent="1">
          <mxGeometry x="1110" y="460" width="140" height="110" as="geometry" />
        </mxCell>
        <mxCell id="GztQF_fcFN-zkm4wOgRc-17" value="" style="shape=curlyBracket;whiteSpace=wrap;html=1;rounded=1;labelPosition=left;verticalLabelPosition=middle;align=right;verticalAlign=middle;rotation=29;strokeWidth=2.3621999999999996;" vertex="1" parent="1">
          <mxGeometry x="798.72" y="89.39" width="20" height="280.28" as="geometry" />
        </mxCell>
        <mxCell id="GztQF_fcFN-zkm4wOgRc-18" value="&lt;font style=&quot;font-size: 14px;&quot;&gt;Fonctions cognitives supérieures mobilisant plus d&#39;énergie mentale&lt;/font&gt;" style="text;html=1;align=center;verticalAlign=middle;whiteSpace=wrap;rounded=0;" vertex="1" parent="1">
          <mxGeometry x="670" y="160" width="135" height="80" as="geometry" />
        </mxCell>
        <mxCell id="GztQF_fcFN-zkm4wOgRc-20" value="&lt;font style=&quot;font-size: 14px;&quot;&gt;Niveau minimal requis pour réussir science des données&lt;/font&gt;" style="shape=callout;whiteSpace=wrap;html=1;perimeter=calloutPerimeter;position2=0;fillColor=#d5e8d4;strokeColor=#82b366;" vertex="1" parent="1">
          <mxGeometry x="1040" y="325" width="180" height="100" as="geometry" />
        </mxCell>
        <mxCell id="GztQF_fcFN-zkm4wOgRc-21" value="&lt;font style=&quot;font-size: 14px;&quot;&gt;Niveau nécessaire pour les travaux de groupe (mobilisation de l&#39;intelligence collective)&lt;/font&gt;" style="shape=callout;whiteSpace=wrap;html=1;perimeter=calloutPerimeter;position2=0;fillColor=#fff2cc;strokeColor=#d6b656;" vertex="1" parent="1">
          <mxGeometry x="990" y="225" width="210" height="100" as="geometry" />
        </mxCell>
        <mxCell id="GztQF_fcFN-zkm4wOgRc-22" value="&lt;font style=&quot;font-size: 14px;&quot;&gt;Niveau visé pour les meilleurs (critique statistique)&lt;/font&gt;" style="shape=callout;whiteSpace=wrap;html=1;perimeter=calloutPerimeter;position2=0;fillColor=#ffe6cc;strokeColor=#d79b00;" vertex="1" parent="1">
          <mxGeometry x="940" y="125" width="120" height="100" as="geometry" />
        </mxCell>
      </root>
    </mxGraphModel>
  </diagram>
</mxfile>
